# Blender v2.82 (sub 7) OBJ File: 'Chair_Final.blend'
# www.blender.org
mtllib Chair.mtl
o Chair
v 0.358325 -0.443970 -0.295454
v -0.227273 -0.443970 -0.250000
v 0.358325 -0.443970 -0.250000
v -0.227273 -0.443970 -0.295454
v -0.318181 -0.727272 -0.318182
v -0.318181 0.000000 -0.318181
v -0.227273 0.000000 -0.318181
v -0.227273 -0.727272 -0.318182
v 0.358325 -0.443970 0.250000
v -0.227273 -0.443970 0.295454
v 0.358325 -0.443970 0.295454
v -0.227273 -0.443970 0.250000
v -0.227273 -0.534879 -0.250000
v 0.358325 -0.443970 -0.250000
v -0.227273 -0.443970 -0.250000
v 0.374354 -0.534879 -0.250000
v 0.358325 -0.443970 -0.295454
v -0.227273 -0.534879 -0.295455
v -0.227273 -0.443970 -0.295454
v 0.374354 -0.534879 -0.295455
v -0.227273 -0.534879 0.295454
v 0.358325 -0.443970 0.295454
v -0.227273 -0.443970 0.295454
v 0.374354 -0.534879 0.295454
v 0.358325 -0.443970 0.250000
v -0.227273 -0.534879 0.249999
v -0.227273 -0.443970 0.250000
v 0.374354 -0.534879 0.249999
v -0.227273 -0.534879 -0.295455
v 0.374354 -0.534879 -0.250000
v -0.227273 -0.534879 -0.250000
v 0.374354 -0.534879 -0.295455
v -0.227273 -0.534879 0.249999
v 0.374354 -0.534879 0.295454
v -0.227273 -0.534879 0.295454
v 0.374354 -0.534879 0.249999
v 0.489372 0.869653 0.227273
v 0.489372 0.869654 -0.227272
v 0.444607 0.877547 -0.227272
v 0.420928 0.743255 0.227273
v 0.420928 0.743255 -0.227272
v 0.465692 0.735362 -0.227272
v 0.369623 0.429029 0.227273
v 0.369623 0.429029 -0.227272
v 0.414387 0.421136 -0.227272
v 0.443121 0.999999 -0.318181
v 0.535433 0.999999 -0.227271
v 0.535433 0.999999 -0.318181
v 0.443121 0.999999 -0.227271
v 0.443121 0.999999 0.227273
v 0.535433 0.999999 0.318182
v 0.535433 0.999999 0.227273
v 0.443121 0.999999 0.318182
v 0.489372 0.869653 0.227273
v 0.444607 0.877547 -0.227272
v 0.444607 0.877547 0.227273
v 0.444607 0.877547 0.227273
v 0.420928 0.743255 -0.227272
v 0.420928 0.743255 0.227273
v 0.444607 0.877547 -0.227272
v 0.465692 0.735362 0.227273
v 0.489372 0.869654 -0.227272
v 0.489372 0.869653 0.227273
v 0.465692 0.735362 -0.227272
v 0.420928 0.743255 0.227273
v 0.465692 0.735362 -0.227272
v 0.465692 0.735362 0.227273
v 0.438066 0.555427 0.227273
v 0.393303 0.563321 -0.227272
v 0.393303 0.563321 0.227273
v 0.438066 0.555428 -0.227272
v 0.535433 0.999999 -0.318181
v 0.365729 0.037561 -0.227273
v 0.365729 0.037562 -0.318181
v 0.535433 0.999999 -0.227271
v 0.365729 0.037561 -0.227273
v 0.443121 0.999999 -0.227271
v 0.273418 0.037561 -0.227273
v 0.535433 0.999999 -0.227271
v 0.365729 0.037562 -0.318181
v 0.443121 0.999999 -0.318181
v 0.535433 0.999999 -0.318181
v 0.273418 0.037562 -0.318181
v 0.273418 0.037562 -0.318181
v 0.443121 0.999999 -0.227271
v 0.443121 0.999999 -0.318181
v 0.273418 0.037561 -0.227273
v 0.365729 0.037561 0.227273
v 0.443121 0.999999 0.227273
v 0.535433 0.999999 0.227273
v 0.273418 0.037561 0.227273
v 0.535433 0.999999 0.227273
v 0.365729 0.037561 0.318181
v 0.365729 0.037561 0.227273
v 0.535433 0.999999 0.318182
v 0.365729 0.037561 0.318181
v 0.443121 0.999999 0.318182
v 0.273418 0.037561 0.318181
v 0.535433 0.999999 0.318182
v 0.273418 0.037561 0.227273
v 0.443121 0.999999 0.318182
v 0.443121 0.999999 0.227273
v 0.273418 0.037561 0.318181
v 0.393303 0.563321 0.227273
v 0.369623 0.429029 -0.227272
v 0.369623 0.429029 0.227273
v 0.393303 0.563321 -0.227272
v 0.414387 0.421136 0.227273
v 0.438066 0.555428 -0.227272
v 0.438066 0.555427 0.227273
v 0.414387 0.421136 -0.227272
v 0.369623 0.429029 0.227273
v 0.414387 0.421136 -0.227272
v 0.414387 0.421136 0.227273
v -0.363636 0.045455 0.363636
v 0.363636 0.045455 -0.363636
v -0.363636 0.045455 -0.363636
v 0.363636 0.045455 0.363636
v -0.363636 0.000000 -0.363636
v 0.363636 0.045455 -0.363636
v 0.363636 0.000000 -0.363636
v -0.363636 0.045455 -0.363636
v -0.363636 -0.000000 0.363636
v -0.363636 0.045455 -0.363636
v -0.363636 0.000000 -0.363636
v -0.363636 0.045455 0.363636
v 0.363636 0.000000 -0.363636
v 0.363636 0.045455 0.363636
v 0.363636 -0.000000 0.363636
v 0.363636 0.045455 -0.363636
v 0.363636 -0.000000 0.363636
v -0.363636 0.045455 0.363636
v -0.363636 -0.000000 0.363636
v 0.363636 0.045455 0.363636
v 0.363636 0.000000 -0.363636
v -0.363636 -0.000000 0.363636
v -0.363636 0.000000 -0.363636
v 0.363636 -0.000000 0.363636
v 0.280041 0.000000 -0.295454
v -0.227273 -0.090909 -0.295454
v -0.227273 0.000000 -0.295454
v 0.296070 -0.090909 -0.295454
v -0.227273 -0.090909 -0.250000
v 0.280041 0.000000 -0.250000
v -0.227273 0.000000 -0.250000
v 0.296070 -0.090909 -0.250000
v -0.295454 0.000000 -0.227273
v -0.295454 -0.090909 0.227273
v -0.295454 -0.000000 0.227273
v -0.295454 -0.090909 -0.227273
v 0.318181 -0.090909 0.227273
v 0.318181 0.000000 -0.227273
v 0.318181 -0.090909 -0.227273
v 0.318181 -0.000000 0.227273
v 0.363636 -0.090909 -0.227273
v 0.363636 -0.000000 0.227273
v 0.363636 -0.090909 0.227273
v 0.363636 0.000000 -0.227273
v -0.250000 -0.000000 0.227273
v -0.250000 -0.090909 -0.227273
v -0.250000 0.000000 -0.227273
v -0.250000 -0.090909 0.227273
v -0.227273 -0.090909 0.295454
v 0.280041 -0.000000 0.295454
v -0.227273 -0.000000 0.295454
v 0.296070 -0.090909 0.295454
v 0.280041 -0.000000 0.250000
v -0.227273 -0.090909 0.250000
v -0.227273 -0.000000 0.250000
v 0.296070 -0.090909 0.250000
v 0.296070 -0.090909 -0.250000
v -0.227273 -0.090909 -0.295454
v 0.296070 -0.090909 -0.295454
v -0.227273 -0.090909 -0.250000
v 0.318181 -0.090909 -0.227273
v 0.363636 -0.090909 0.227273
v 0.318181 -0.090909 0.227273
v 0.363636 -0.090909 -0.227273
v -0.295454 -0.090909 -0.227273
v -0.250000 -0.090909 0.227273
v -0.295454 -0.090909 0.227273
v -0.250000 -0.090909 -0.227273
v 0.296070 -0.090909 0.295454
v 0.296070 -0.090909 0.250000
v -0.227273 -0.090909 0.250000
v -0.227273 -0.090909 0.295454
v 0.365729 0.037561 -0.227273
v 0.408278 -0.727272 -0.227273
v 0.500590 -0.727272 -0.227273
v 0.273418 0.037561 -0.227273
v 0.408278 -0.727272 -0.318182
v 0.273418 0.037561 -0.227273
v 0.273418 0.037562 -0.318181
v 0.408278 -0.727272 -0.227273
v 0.365729 0.037562 -0.318181
v 0.408278 -0.727272 -0.318182
v 0.273418 0.037562 -0.318181
v 0.500590 -0.727272 -0.318182
v 0.365729 0.037562 -0.318181
v 0.500590 -0.727272 -0.227273
v 0.500590 -0.727272 -0.318182
v 0.365729 0.037561 -0.227273
v 0.365729 0.037561 0.318181
v 0.408278 -0.727272 0.318181
v 0.500590 -0.727272 0.318181
v 0.273418 0.037561 0.318181
v 0.365729 0.037561 0.227273
v 0.408278 -0.727272 0.227272
v 0.273418 0.037561 0.227273
v 0.500590 -0.727272 0.227272
v 0.408278 -0.727272 0.227272
v 0.273418 0.037561 0.318181
v 0.273418 0.037561 0.227273
v 0.408278 -0.727272 0.318181
v 0.365729 0.037561 0.227273
v 0.500590 -0.727272 0.318181
v 0.500590 -0.727272 0.227272
v 0.365729 0.037561 0.318181
v -0.227273 0.000000 -0.318181
v -0.318181 -0.727272 -0.318182
v -0.318181 0.000000 -0.318181
v -0.227273 -0.727272 -0.318182
v -0.318181 0.000000 -0.227273
v -0.227273 -0.727272 -0.227273
v -0.227273 0.000000 -0.227273
v -0.318181 -0.727272 -0.227273
v -0.318181 0.000000 -0.318181
v -0.318181 -0.727272 -0.227273
v -0.318181 0.000000 -0.227273
v -0.318181 -0.727272 -0.318182
v -0.227273 -0.727272 -0.227273
v -0.227273 0.000000 -0.227273
v -0.318181 0.000000 -0.227273
v -0.318181 -0.727272 -0.227273
v -0.227273 -0.727272 -0.318182
v -0.227273 0.000000 -0.318181
v -0.227273 0.000000 -0.227273
v -0.227273 -0.727272 -0.227273
v -0.318181 -0.727272 -0.227273
v -0.318181 0.000000 -0.227273
v -0.318181 0.000000 -0.318181
v -0.318181 -0.727272 -0.318182
v -0.227273 0.000000 -0.227273
v -0.227273 -0.727272 -0.318182
v -0.227273 0.000000 -0.318181
v -0.227273 -0.727272 -0.227273
v -0.318181 -0.727272 0.318181
v -0.318181 -0.000000 0.318181
v -0.318181 -0.000000 0.227273
v -0.318181 -0.727272 0.227272
v -0.318181 -0.727272 0.227272
v -0.318181 -0.000000 0.227273
v -0.227273 -0.000000 0.227273
v -0.227273 -0.727272 0.227272
v -0.318181 -0.000000 0.318181
v -0.227273 -0.727272 0.318181
v -0.227273 -0.000000 0.318181
v -0.318181 -0.727272 0.318181
v -0.227273 -0.000000 0.227273
v -0.318181 -0.727272 0.227272
v -0.318181 -0.000000 0.227273
v -0.227273 -0.727272 0.227272
v -0.318181 -0.000000 0.227273
v -0.318181 -0.727272 0.318181
v -0.318181 -0.000000 0.318181
v -0.318181 -0.727272 0.227272
v -0.227273 -0.727272 0.227272
v -0.227273 -0.000000 0.227273
v -0.227273 -0.000000 0.318181
v -0.227273 -0.727272 0.318181
v -0.227273 -0.727272 0.318181
v -0.227273 -0.000000 0.318181
v -0.318181 -0.000000 0.318181
v -0.318181 -0.727272 0.318181
v -0.227273 -0.000000 0.318181
v -0.227273 -0.727272 0.227272
v -0.227273 -0.000000 0.227273
v -0.227273 -0.727272 0.318181
v -0.318181 -0.727272 -0.227273
v -0.227273 -0.727272 -0.318182
v -0.227273 -0.727272 -0.227273
v -0.318181 -0.727272 -0.318182
v 0.500590 -0.727272 -0.318182
v 0.408278 -0.727272 -0.227273
v 0.408278 -0.727272 -0.318182
v 0.500590 -0.727272 -0.227273
v -0.318181 -0.727272 0.318181
v -0.227273 -0.727272 0.227272
v -0.227273 -0.727272 0.318181
v -0.318181 -0.727272 0.227272
v 0.500590 -0.727272 0.227272
v 0.408278 -0.727272 0.318181
v 0.408278 -0.727272 0.227272
v 0.500590 -0.727272 0.318181
vt 0.917216 0.862975
vt 0.934849 0.628729
vt 0.934849 0.862975
vt 0.917216 0.628729
vt 0.748998 0.592741
vt 0.748998 0.301462
vt 0.784264 0.301462
vt 0.784264 0.592741
vt 0.188670 0.929650
vt 0.206303 0.695404
vt 0.206303 0.929650
vt 0.188670 0.695404
vt 0.664889 0.853967
vt 0.700155 0.619430
vt 0.700155 0.853967
vt 0.664889 0.613010
vt 0.875161 0.605844
vt 0.910428 0.840381
vt 0.875161 0.840381
vt 0.910428 0.599424
vt 0.875161 0.244351
vt 0.910428 0.009814
vt 0.910428 0.244351
vt 0.875161 0.003394
vt 0.875161 0.307882
vt 0.910428 0.542419
vt 0.875161 0.542419
vt 0.910428 0.301462
vt 0.573991 0.625718
vt 0.556358 0.866589
vt 0.556358 0.625718
vt 0.573991 0.866589
vt 0.934849 0.381070
vt 0.917216 0.621941
vt 0.917216 0.381070
vt 0.934849 0.621941
vt 0.983555 0.569908
vt 0.983555 0.751957
vt 0.966059 0.751957
vt 0.273163 0.814556
vt 0.273163 0.996606
vt 0.255722 0.996606
vt 0.454062 0.984785
vt 0.436706 0.803620
vt 0.454062 0.801848
vt 0.700155 0.897681
vt 0.664889 0.860755
vt 0.700155 0.860755
vt 0.664889 0.897681
vt 0.538725 0.873378
vt 0.573991 0.910303
vt 0.538725 0.910303
vt 0.573991 0.873378
vt 0.983555 0.381070
vt 0.966059 0.563119
vt 0.966059 0.381070
vt 0.308046 0.625719
vt 0.255722 0.807768
vt 0.255722 0.625719
vt 0.308046 0.807768
vt 0.139827 0.695404
vt 0.087503 0.877453
vt 0.087503 0.695404
vt 0.139827 0.877453
vt 0.279951 0.996606
vt 0.297392 0.814556
vt 0.297392 0.996606
vt 0.966059 0.940795
vt 0.983555 0.758745
vt 0.983555 0.940795
vt 0.966059 0.758745
vt 0.122770 0.688615
vt 0.087504 0.301462
vt 0.122770 0.301462
vt 0.087503 0.688616
vt 0.038660 0.307882
vt 0.003394 0.692873
vt 0.003394 0.301462
vt 0.038660 0.699293
vt 0.080715 0.692873
vt 0.045449 0.307882
vt 0.080715 0.301462
vt 0.045449 0.699293
vt 0.206879 0.688616
vt 0.171613 0.301462
vt 0.206879 0.301462
vt 0.171613 0.688616
vt 0.622834 0.009814
vt 0.658100 0.394806
vt 0.622834 0.401226
vt 0.658100 0.003394
vt 0.164824 0.688615
vt 0.129558 0.301462
vt 0.164824 0.301462
vt 0.129558 0.688615
vt 0.580780 0.394806
vt 0.616046 0.009814
vt 0.616046 0.401226
vt 0.580779 0.003394
vt 0.213667 0.301462
vt 0.248933 0.688615
vt 0.213667 0.688615
vt 0.248933 0.301462
vt 0.464885 0.613010
vt 0.412561 0.795059
vt 0.412561 0.613010
vt 0.464885 0.795059
vt 0.548994 0.625719
vt 0.496670 0.807768
vt 0.496670 0.625718
vt 0.548994 0.807768
vt 0.412561 0.984785
vt 0.412561 0.801848
vt 0.429917 0.983013
vt 0.292211 0.003394
vt 0.573991 0.294673
vt 0.292211 0.294673
vt 0.573991 0.003394
vt 0.405773 0.890808
vt 0.388140 0.599529
vt 0.405773 0.599529
vt 0.388140 0.890808
vt 0.489882 0.904289
vt 0.472255 0.613010
vt 0.489882 0.613010
vt 0.472255 0.904289
vt 0.315416 0.625719
vt 0.333043 0.916998
vt 0.315416 0.916998
vt 0.333043 0.625719
vt 0.388140 0.301462
vt 0.405773 0.592741
vt 0.388140 0.592741
vt 0.405773 0.301462
vt 0.003394 0.294673
vt 0.285423 0.003394
vt 0.285423 0.294673
vt 0.003394 0.003394
vt 0.003394 0.712502
vt 0.038660 0.915685
vt 0.003394 0.915685
vt 0.038660 0.706082
vt 0.045449 0.915685
vt 0.080715 0.712502
vt 0.080715 0.915685
vt 0.045449 0.706082
vt 0.622834 0.706082
vt 0.658088 0.888131
vt 0.622834 0.888131
vt 0.658087 0.706082
vt 0.580779 0.706082
vt 0.616033 0.888131
vt 0.580780 0.888131
vt 0.616033 0.706082
vt 0.917216 0.192232
vt 0.952470 0.374282
vt 0.917216 0.374282
vt 0.952469 0.192232
vt 0.952470 0.185444
vt 0.917216 0.003394
vt 0.952469 0.003394
vt 0.917216 0.185444
vt 0.213667 0.905008
vt 0.248934 0.701824
vt 0.248934 0.905008
vt 0.213667 0.695404
vt 0.146615 0.701824
vt 0.181882 0.905008
vt 0.146615 0.905008
vt 0.181882 0.695404
vt 0.941637 0.838258
vt 0.959271 0.628729
vt 0.959271 0.838258
vt 0.941637 0.628729
vt 0.959258 0.003394
vt 0.976885 0.185444
vt 0.959258 0.185444
vt 0.976885 0.003394
vt 0.976885 0.374282
vt 0.959258 0.192232
vt 0.976885 0.192232
vt 0.959258 0.374282
vt 0.941637 0.590598
vt 0.959271 0.381070
vt 0.959271 0.590598
vt 0.941637 0.381070
vt 0.255722 0.307882
vt 0.290988 0.612510
vt 0.255722 0.618930
vt 0.290988 0.301462
vt 0.664889 0.003394
vt 0.700155 0.308154
vt 0.664889 0.308154
vt 0.700155 0.003394
vt 0.297776 0.612510
vt 0.333043 0.307882
vt 0.333043 0.618930
vt 0.297776 0.301462
vt 0.489882 0.606221
vt 0.454616 0.301462
vt 0.489882 0.301462
vt 0.454616 0.606221
vt 0.538725 0.307882
vt 0.573991 0.612510
vt 0.538725 0.618930
vt 0.573991 0.301462
vt 0.496670 0.612510
vt 0.531937 0.307882
vt 0.531937 0.618930
vt 0.496670 0.301462
vt 0.447827 0.606221
vt 0.412561 0.301462
vt 0.447827 0.301462
vt 0.412561 0.606221
vt 0.375097 0.606221
vt 0.339831 0.301462
vt 0.375097 0.301462
vt 0.339831 0.606221
vt 0.826318 0.003394
vt 0.791052 0.294673
vt 0.791052 0.003394
vt 0.826318 0.294673
vt 0.622834 0.699293
vt 0.658100 0.408014
vt 0.658100 0.699293
vt 0.622834 0.408014
vt 0.833107 0.294568
vt 0.868373 0.003394
vt 0.868373 0.294568
vt 0.833107 0.003394
vt 0.742209 0.003394
vt 0.742209 0.294673
vt 0.706943 0.294673
vt 0.706943 0.003394
vt 0.833107 0.890598
vt 0.833107 0.599424
vt 0.868373 0.599424
vt 0.868373 0.890598
vt 0.375097 0.613010
vt 0.375097 0.904183
vt 0.339831 0.904183
vt 0.339831 0.613010
vt 0.784264 0.599529
vt 0.748998 0.890703
vt 0.748998 0.599529
vt 0.784264 0.890703
vt 0.706943 0.890703
vt 0.706943 0.599529
vt 0.742209 0.599529
vt 0.742209 0.890703
vt 0.748998 0.294673
vt 0.748998 0.003394
vt 0.784264 0.003394
vt 0.784264 0.294673
vt 0.580780 0.699293
vt 0.616046 0.408014
vt 0.616046 0.699293
vt 0.580779 0.408014
vt 0.742209 0.301462
vt 0.706943 0.592741
vt 0.706943 0.301462
vt 0.742209 0.592741
vt 0.826319 0.301462
vt 0.791052 0.592636
vt 0.791052 0.301462
vt 0.826319 0.592636
vt 0.833107 0.592636
vt 0.833107 0.301462
vt 0.868373 0.301462
vt 0.868373 0.592635
vt 0.700155 0.314942
vt 0.700155 0.606221
vt 0.664889 0.606221
vt 0.664889 0.314942
vt 0.826319 0.599424
vt 0.791052 0.890598
vt 0.791052 0.599424
vt 0.826319 0.890598
vt 0.910415 0.556225
vt 0.875161 0.592636
vt 0.875161 0.556226
vt 0.910415 0.592636
vt 0.531937 0.851515
vt 0.496670 0.814556
vt 0.531937 0.814556
vt 0.496670 0.851515
vt 0.910415 0.251140
vt 0.875161 0.287550
vt 0.875161 0.251140
vt 0.910415 0.287550
vt 0.531937 0.895261
vt 0.496670 0.858303
vt 0.531937 0.858303
vt 0.496670 0.895261
vn 0.0000 1.0000 0.0000
vn 0.0000 0.0000 -1.0000
vn 0.0000 -0.0000 1.0000
vn 0.0000 -1.0000 0.0000
vn 0.1736 0.9848 0.0000
vn -0.1736 -0.9848 -0.0000
vn 0.1737 0.9848 0.0000
vn -0.9848 0.1736 0.0000
vn 0.9848 -0.1736 -0.0000
vn -0.1737 -0.9848 0.0000
vn -1.0000 0.0000 0.0000
vn 1.0000 0.0000 0.0000
vn -0.9848 -0.1736 -0.0000
vn 0.9848 0.1736 0.0000
usemtl diffuse_0_0_0_255
s 1
f 1/1/1 2/2/1 3/3/1
f 1/1/1 4/4/1 2/2/1
f 5/5/2 6/6/2 7/7/2
f 5/5/2 7/7/2 8/8/2
f 9/9/1 10/10/1 11/11/1
f 9/9/1 12/12/1 10/10/1
f 13/13/3 14/14/3 15/15/3
f 13/13/3 16/16/3 14/14/3
f 17/17/2 18/18/2 19/19/2
f 17/17/2 20/20/2 18/18/2
f 21/21/3 22/22/3 23/23/3
f 21/21/3 24/24/3 22/22/3
f 25/25/2 26/26/2 27/27/2
f 25/25/2 28/28/2 26/26/2
f 29/29/4 30/30/4 31/31/4
f 29/29/4 32/32/4 30/30/4
f 33/33/4 34/34/4 35/35/4
f 33/33/4 36/36/4 34/34/4
f 37/37/5 38/38/5 39/39/5
f 40/40/6 41/41/6 42/42/6
f 43/43/6 44/44/6 45/45/6
f 46/46/1 47/47/1 48/48/1
f 46/46/1 49/49/1 47/47/1
f 50/50/1 51/51/1 52/52/1
f 50/50/1 53/53/1 51/51/1
f 54/54/7 55/55/7 56/56/7
f 57/57/8 58/58/8 59/59/8
f 57/57/8 60/60/8 58/58/8
f 61/61/9 62/62/9 63/63/9
f 61/61/9 64/64/9 62/62/9
f 65/65/10 66/66/10 67/67/10
f 68/68/5 69/69/5 70/70/5
f 68/68/5 71/71/7 69/69/5
f 72/72/9 73/73/9 74/74/9
f 72/72/9 75/75/9 73/73/9
f 76/76/3 77/77/3 78/78/3
f 76/76/3 79/79/3 77/77/3
f 80/80/2 81/81/2 82/82/2
f 80/80/2 83/83/2 81/81/2
f 84/84/8 85/85/8 86/86/8
f 84/84/8 87/87/8 85/85/8
f 88/88/2 89/89/2 90/90/2
f 88/88/2 91/91/2 89/89/2
f 92/92/9 93/93/9 94/94/9
f 92/92/9 95/95/9 93/93/9
f 96/96/3 97/97/3 98/98/3
f 96/96/3 99/99/3 97/97/3
f 100/100/8 101/101/8 102/102/8
f 100/100/8 103/103/8 101/101/8
f 104/104/8 105/105/8 106/106/8
f 104/104/8 107/107/8 105/105/8
f 108/108/9 109/109/9 110/110/9
f 108/108/9 111/111/9 109/109/9
f 112/112/10 113/113/10 114/114/10
f 115/115/1 116/116/1 117/117/1
f 115/115/1 118/118/1 116/116/1
f 119/119/2 120/120/2 121/121/2
f 119/119/2 122/122/2 120/120/2
f 123/123/11 124/124/11 125/125/11
f 123/123/11 126/126/11 124/124/11
f 127/127/12 128/128/12 129/129/12
f 127/127/12 130/130/12 128/128/12
f 131/131/3 132/132/3 133/133/3
f 131/131/3 134/134/3 132/132/3
f 135/135/4 136/136/4 137/137/4
f 135/135/4 138/138/4 136/136/4
f 139/139/2 140/140/2 141/141/2
f 139/139/2 142/142/2 140/140/2
f 143/143/3 144/144/3 145/145/3
f 143/143/3 146/146/3 144/144/3
f 147/147/11 148/148/11 149/149/11
f 147/147/11 150/150/11 148/148/11
f 151/151/11 152/152/11 153/153/11
f 151/151/11 154/154/11 152/152/11
f 155/155/12 156/156/12 157/157/12
f 155/155/12 158/158/12 156/156/12
f 159/159/12 160/160/12 161/161/12
f 159/159/12 162/162/12 160/160/12
f 163/163/3 164/164/3 165/165/3
f 163/163/3 166/166/3 164/164/3
f 167/167/2 168/168/2 169/169/2
f 167/167/2 170/170/2 168/168/2
f 171/171/4 172/172/4 173/173/4
f 171/171/4 174/174/4 172/172/4
f 175/175/4 176/176/4 177/177/4
f 175/175/4 178/178/4 176/176/4
f 179/179/4 180/180/4 181/181/4
f 179/179/4 182/182/4 180/180/4
f 183/183/4 185/184/4 184/185/4
f 183/183/4 186/186/4 185/184/4
f 187/187/3 188/188/3 189/189/3
f 187/187/3 190/190/3 188/188/3
f 191/191/13 192/192/13 193/193/13
f 191/191/13 194/194/13 192/192/13
f 195/195/2 196/196/2 197/197/2
f 195/195/2 198/198/2 196/196/2
f 199/199/14 200/200/14 201/201/14
f 199/199/14 202/202/14 200/200/14
f 203/203/3 204/204/3 205/205/3
f 203/203/3 206/206/3 204/204/3
f 207/207/2 208/208/2 209/209/2
f 207/207/2 210/210/2 208/208/2
f 211/211/13 212/212/13 213/213/13
f 211/211/13 214/214/13 212/212/13
f 215/215/14 216/216/14 217/217/14
f 215/215/14 218/218/14 216/216/14
f 219/219/2 220/220/2 221/221/2
f 219/219/2 222/222/2 220/220/2
f 223/223/3 224/224/3 225/225/3
f 223/223/3 226/226/3 224/224/3
f 227/227/11 228/228/11 229/229/11
f 227/227/11 230/230/11 228/228/11
f 231/231/3 232/232/3 233/233/3
f 231/231/3 233/233/3 234/234/3
f 235/235/12 236/236/12 237/237/12
f 235/235/12 237/237/12 238/238/12
f 239/239/11 240/240/11 241/241/11
f 239/239/11 241/241/11 242/242/11
f 243/243/12 244/244/12 245/245/12
f 243/243/12 246/246/12 244/244/12
f 247/247/11 248/248/11 249/249/11
f 247/247/11 249/249/11 250/250/11
f 251/251/2 252/252/2 253/253/2
f 251/251/2 253/253/2 254/254/2
f 255/255/3 256/256/3 257/257/3
f 255/255/3 258/258/3 256/256/3
f 259/259/2 260/260/2 261/261/2
f 259/259/2 262/262/2 260/260/2
f 263/263/11 264/264/11 265/265/11
f 263/263/11 266/266/11 264/264/11
f 267/267/12 268/268/12 269/269/12
f 267/267/12 269/269/12 270/270/12
f 271/271/3 272/272/3 273/273/3
f 271/271/3 273/273/3 274/274/3
f 275/275/12 276/276/12 277/277/12
f 275/275/12 278/278/12 276/276/12
f 279/279/4 280/280/4 281/281/4
f 279/279/4 282/282/4 280/280/4
f 283/283/4 284/284/4 285/285/4
f 283/283/4 286/286/4 284/284/4
f 287/287/4 288/288/4 289/289/4
f 287/287/4 290/290/4 288/288/4
f 291/291/4 292/292/4 293/293/4
f 291/291/4 294/294/4 292/292/4
